<?xml version="1.0" encoding="utf-8"?>
<!-- Generator: Adobe Illustrator 26.0.2, SVG Export Plug-In . SVG Version: 6.00 Build 0)  -->
<svg version="1.1" id="圖層_1" xmlns="http://www.w3.org/2000/svg" xmlns:xlink="http://www.w3.org/1999/xlink" x="0px" y="0px"
	 viewBox="0 0 415.4 397.4" style="enable-background:new 0 0 415.4 397.4;" xml:space="preserve">
<g id="圖層_2_00000093144366801193197960000001513685472169999536_">
	<g id="圖層_1-2">
		<path d="M160.8,54.6h25.3l22.7,60.1l20.9-60.1h25.9v3.9h-6.3c-2.2,0-3.7,0.3-4.5,1c-0.9,0.9-1.3,2.1-1.1,3.4v60.2
			c-0.1,1.1,0.5,2.2,1.4,2.8c0.9,0.7,2.5,1,4.8,1h5.8v3.9h-34.8v-3.9h6.5c1.4,0.1,2.9-0.2,4.1-1c0.9-0.6,1.4-1.6,1.3-2.7V58.5
			l-25.1,72.2h-3.5l-27.1-71.9v55.3c0,3.3,0.4,5.8,1.2,7.4c0.8,1.6,2,2.9,3.5,3.8c1.5,0.9,4.1,1.4,7.6,1.6v3.9h-28.7v-3.9
			c4.7-0.3,7.9-1.3,9.6-3s2.5-4.7,2.5-9.1V62.2c0.1-1.1-0.3-2.1-1.2-2.8c-0.8-0.6-2.3-0.9-4.4-0.9h-6.5V54.6z"/>
		<path d="M0,232.3h24.9l22.3,58.9l20.5-58.9h25.4v3.8h-6.2c-2.2,0-3.7,0.3-4.4,0.9c-0.9,0.9-1.3,2.1-1.1,3.3v59.1
			c0,1.1,0.5,2.1,1.4,2.7c0.9,0.6,2.5,1,4.7,1h5.7v3.8H58.9v-3.8h6.4c1.4,0.1,2.8-0.2,4-1c0.8-0.6,1.3-1.6,1.3-2.6v-63.5L46,306.9
			h-3.4L16,236.4v54.3c0,3.2,0.4,5.6,1.2,7.2c0.8,1.5,2,2.8,3.5,3.7c1.5,0.9,4,1.4,7.5,1.6v3.8H0v-3.8c4.6-0.3,7.7-1.3,9.4-3
			c1.6-1.7,2.5-4.7,2.5-8.9v-51.4c0.1-1.1-0.4-2.1-1.2-2.8c-0.8-0.6-2.2-0.9-4.3-0.9H0V232.3z"/>
		<path d="M99.7,232.3h34.4v3.8h-5.9c-2.6,0-4.3,0.3-5,1s-1,2-1,4.2v56.5c0,2.3,0.3,3.7,0.9,4.2c0.8,0.8,2.3,1.2,4.4,1.2h6.6v3.8
			H99.7v-3.8h6.5c2.3,0,3.8-0.3,4.4-1s1-2.1,1-4.4v-56.5c0-2.1-0.3-3.5-0.9-4c-0.9-0.8-2.7-1.2-5.2-1.2h-5.8V232.3z"/>
		<path d="M142.1,232.3H160l45,58.6v-42.4c0-4.3-1-7.4-2.9-9.5c-1.8-1.9-4.4-2.9-8-2.9v-3.8h26.1v3.8c-2.1-0.1-4.1,0.3-6,1.1
			c-1.5,1-2.7,2.4-3.4,4c-1,2-1.5,4.2-1.5,6.4v59.3h-4.8l-46.6-61v45c0,4.1,1,7.1,3.1,9.1c2.1,2,5.2,3,9.5,3.1v3.8h-28.5v-3.8
			c3.2,0,6.2-1.2,8.5-3.5c2.1-2.2,3.2-5.1,3.1-8.1V241l-0.9-1c-1-1.3-2.2-2.4-3.6-3.3c-1.2-0.5-2.5-0.8-3.8-0.7h-3.4V232.3z"/>
		<path d="M261.7,230.7c6.2,0,12.4,1.7,17.7,5c5.5,3.3,10,8.1,12.9,13.9c6.2,12.7,6.2,27.5,0,40.2c-2.9,5.8-7.4,10.6-12.9,14
			c-5.2,3.3-11.2,5-17.4,5c-6,0-11.8-1.7-16.9-4.9c-5.4-3.5-9.8-8.3-12.6-14.1c-3.2-6.3-4.9-13.3-4.8-20.3
			c-0.1-6.9,1.5-13.7,4.6-19.9c2.9-5.7,7.2-10.5,12.6-13.9C250,232.5,255.8,230.8,261.7,230.7z M262.5,234.6
			c-6.3-0.1-12.3,3-15.9,8.2c-4.1,5.4-6.1,14.3-6.1,26.6c0,13.3,2.1,22.6,6.3,27.7c4.2,5.1,9.3,7.7,15.5,7.7c4.1,0.1,8-1.1,11.4-3.5
			c3.3-2.3,5.9-6,7.8-11c1.9-5,2.9-11.7,2.9-19.9c0-8.9-0.9-15.9-2.7-21c-1.8-5.1-4.4-8.8-7.8-11.2
			C270.5,235.8,266.6,234.6,262.5,234.6L262.5,234.6z"/>
		<path d="M305.1,232.3h38.6c7.5,0,13.3,1.7,17.4,5.1c4,3.2,6.3,8.2,6.2,13.4c0.1,3.1-0.8,6.2-2.5,8.8c-1.7,2.7-4.2,4.8-7.1,6.1
			c-3.1,1.5-7.9,2.6-14.5,3.3c4.8,1.3,8.1,2.6,9.9,3.9c1.8,1.3,3.3,2.9,4.4,4.9c1.1,2,2.4,6.1,3.8,12.2c1,4.4,2.1,7.4,3.2,9
			c0.6,1.1,1.6,1.8,2.8,1.9c1,0,2-0.8,2.9-2.3s1.4-4.2,1.6-8.1h3.4c-0.7,11.4-4.9,17.2-12.7,17.2c-2.3,0.1-4.5-0.6-6.4-1.9
			c-1.9-1.4-3.3-3.3-4.1-5.5c-0.7-1.8-1.5-6.6-2.4-14.3c-0.5-4.5-1.3-7.6-2.4-9.5c-1.2-2-3-3.6-5.1-4.5c-2.6-1.2-5.5-1.8-8.3-1.7
			h-6.1v29.3c-0.1,1,0.3,2,1,2.6c1.1,0.7,2.5,1.1,3.8,1h7.2v3.8h-34.7v-3.8h7.3c1.3,0.1,2.5-0.3,3.6-1c0.8-0.6,1.2-1.6,1.1-2.6
			v-59.6c0.1-1.1-0.3-2.2-1.2-2.9c-1-0.7-2.3-1-3.5-0.9h-7.3V232.3z M327.9,266.6h8.8c5.9,0,10.6-1.1,13.9-3.4c3.3-2.2,5-6.2,5-11.9
			c0-3.9-0.6-7-1.9-9.3c-1.1-2.1-2.8-3.8-5-4.7c-2.1-0.8-6.1-1.3-12.1-1.3c-4,0-6.4,0.3-7.4,0.8c-1,0.6-1.5,1.7-1.4,2.8L327.9,266.6
			z"/>
		<path d="M381,232.3h34.4v3.8h-5.9c-2.6,0-4.3,0.3-5,1s-1,2-1,4.2v56.5c0,2.3,0.3,3.7,0.9,4.2c0.8,0.8,2.3,1.2,4.4,1.2h6.6v3.8H381
			v-3.8h6.5c2.3,0,3.8-0.3,4.4-1s1-2.1,1-4.4v-56.5c0-2.1-0.3-3.5-0.9-4c-0.9-0.8-2.7-1.2-5.2-1.2H381V232.3z"/>
		<path d="M135.1,385.5l2.5,0.7c-2,7.5-6.5,11.2-13.4,11.2c-4.7,0.2-9.2-1.6-12.4-5c-3.2-3.4-4.8-7.8-4.8-13.4
			c0-6.4,1.8-11.4,5.3-15c3.2-3.4,7.8-5.3,12.5-5.3c3.2-0.1,6.4,1,8.9,3c2.3,2,3.5,4.2,3.5,6.6c0.1,1.3-0.4,2.6-1.3,3.6
			c-0.8,0.9-1.9,1.4-3.1,1.4c-1.1,0-2.2-0.4-3-1.2c-0.8-0.8-1.2-1.8-1.2-2.9c0-1.2,0.5-2.4,1.3-3.3c0.3-0.3,0.5-0.7,0.6-1.2
			c-0.1-0.9-0.7-1.8-1.5-2.2c-1.2-0.8-2.7-1.1-4.1-1.1c-2.8-0.2-5.6,1.1-7.2,3.5c-2.3,3.3-3.5,7.7-3.5,13.2c0,5.2,1,9.2,3.1,11.8
			c1.8,2.6,4.8,4.1,8,4C129.7,394,133,391.2,135.1,385.5z"/>
		<path d="M159.9,358.7c4.7-0.1,9.2,1.8,12.4,5.3c3.3,3.6,5,8.2,5,14c0.1,3.6-0.7,7.1-2.3,10.3c-1.5,2.8-3.7,5.1-6.4,6.7
			c-2.7,1.6-5.8,2.5-8.9,2.5c-4.6,0.1-9-1.9-12-5.4c-3.3-3.6-4.9-8.2-4.9-14c0-5.7,1.6-10.4,4.9-14
			C150.8,360.6,155.2,358.6,159.9,358.7z M159.9,361.5c-2.9,0-5.6,1.5-7.2,4c-1.9,2.6-2.8,6.8-2.8,12.5c0,5.8,0.9,10,2.8,12.7
			c1.5,2.5,4.3,4,7.2,4c3,0,5.8-1.5,7.4-4c1.9-2.7,2.8-7,2.8-13.1c0-5.6-0.9-9.7-2.8-12.2C165.6,362.9,162.8,361.4,159.9,361.5z"/>
		<path d="M195,359.8h9.1v3.4H195v26.6c-0.1,0.9,0.2,1.9,0.9,2.6c0.9,0.7,2.1,1.1,3.3,1h5v2.9h-22.4v-2.9h3.1c1,0.1,2-0.1,2.9-0.7
			c0.6-0.6,0.9-1.4,0.8-2.2v-27.3h-6.3v-3.4h6.3V357c0-6.4,1.3-11.3,4-14.7c2.3-3.2,6-5.1,9.9-5.1c2.5-0.1,4.9,0.6,6.9,2.1
			c1.6,1.4,2.5,3.5,2.5,5.6c0.1,1.3-0.4,2.6-1.2,3.6c-0.8,0.9-1.9,1.3-3,1.3c-1,0-2-0.3-2.7-1c-0.7-0.7-1.1-1.7-1.1-2.6
			c0-1.2,0.5-2.3,1.4-3c0.8-0.6,1.1-1.1,1.1-1.4c-0.1-0.5-0.4-1-0.9-1.2c-0.8-0.4-1.7-0.6-2.6-0.5c-2.2,0-4.3,1.2-5.6,3
			c-1.5,1.9-2.3,4.8-2.3,8.7V359.8z"/>
		<path d="M221.6,359.8h9.1v3.4h-9.1v26.6c-0.1,0.9,0.2,1.9,0.9,2.6c0.9,0.7,2.1,1.1,3.3,1h5v2.9h-22.4v-2.9h3.1
			c1,0.1,2-0.1,2.9-0.7c0.6-0.6,0.9-1.4,0.8-2.2v-27.3h-6.3v-3.4h6.3V357c0-6.4,1.3-11.3,4-14.7c2.3-3.2,6-5.1,9.9-5.1
			c2.5-0.2,4.9,0.6,6.9,2.1c1.6,1.4,2.5,3.5,2.5,5.6c0.1,1.3-0.4,2.6-1.2,3.6c-0.8,0.9-1.9,1.3-3,1.3c-1,0-2-0.3-2.7-1
			c-0.7-0.7-1.1-1.7-1.1-2.6c0-1.2,0.5-2.3,1.4-3c0.8-0.6,1.1-1.1,1.1-1.4c-0.1-0.5-0.4-1-0.9-1.2c-0.8-0.4-1.7-0.6-2.6-0.5
			c-2.2,0-4.3,1.1-5.6,2.9c-1.5,2-2.3,4.9-2.3,8.7L221.6,359.8z"/>
		<path d="M270,378.3h-26.2c0.1,5.6,1.2,9.5,3.1,11.8c2.1,2.5,5.3,3.9,8.5,3.9c5.1,0,9.2-2.9,12.3-8.7l2.5,1.1
			c-3.8,7.4-9.3,11.1-16.4,11.1c-4.7,0.1-9.2-1.8-12.3-5.3c-3.3-3.5-5-8.1-5-13.5c0-5.9,1.6-10.7,4.9-14.4c3-3.5,7.5-5.5,12.1-5.5
			c3.3-0.1,6.5,0.9,9.1,2.7c2.7,2,4.7,4.7,5.8,7.8C269.5,372.2,270,375.2,270,378.3z M243.9,375.5h15.8c0.8,0,1.7-0.3,2.2-1
			c0.6-1,0.9-2.1,0.8-3.2c0.1-2.7-0.9-5.3-2.7-7.3c-1.5-1.9-3.9-3-6.3-3c-2.7,0-5.3,1.4-6.9,3.6
			C244.9,367.1,243.9,370.7,243.9,375.5L243.9,375.5z"/>
		<path d="M309.8,378.3h-26.1c0.1,5.6,1.2,9.5,3.1,11.8c2.1,2.5,5.2,3.9,8.5,3.9c5.1,0,9.2-2.9,12.3-8.7l2.5,1.1
			c-3.8,7.4-9.3,11.1-16.4,11.1c-4.7,0.1-9.2-1.8-12.3-5.3c-3.3-3.5-5-8.1-5-13.5c0-5.9,1.6-10.7,4.9-14.4c3-3.5,7.5-5.5,12.1-5.5
			c3.3-0.1,6.5,0.9,9.2,2.7c2.7,2,4.7,4.7,5.8,7.8C309.4,372.2,309.9,375.2,309.8,378.3z M283.7,375.5h15.8c0.8,0,1.7-0.3,2.2-1
			c0.6-1,0.9-2.1,0.8-3.2c0.1-2.7-0.9-5.3-2.7-7.3c-1.5-1.9-3.9-3-6.3-3c-2.7,0-5.3,1.4-6.9,3.6
			C284.8,367.1,283.8,370.7,283.7,375.5z"/>
		<path d="M208.8,186.3l-80.7-46.6V46.6L208.8,0l80.7,46.6v93.1L208.8,186.3z M133.1,136.8l75.7,43.7l75.7-43.7V49.5L208.8,5.8
			l-75.7,43.7V136.8z"/>
	</g>
</g>
</svg>
