<svg xmlns="http://www.w3.org/2000/svg" viewBox="0 0 496.01 264.79"><defs><style>.cls-1,.cls-2{fill:#ee7e87;}.cls-2{font-size:137.63px;font-family:Gigi-Regular, Gigi;}</style></defs><g id="圖層_2" data-name="圖層 2"><g id="圖層_1-2" data-name="圖層 1"><path class="cls-1" d="M107,171.24l.36-.74a16.24,16.24,0,0,1,.17-8.79l-.75-.82,2.59-3.85-1-3.18.1-2-1.2-.06.2-4,1.31-2.34.14-2.76.77-1.16q0-1.69,6.67-15.92l1.36-.65-.82-.52,1.4-1.5a66.54,66.54,0,0,1,2.94-6.23q3.39-.43,7.4-8.55Q132,101,132.49,96.58L134.66,94l-.78-1.37.22-4.56-1.65-.68,1.27-1.38-2.58-1.33q-4.89-1-13.87,5.7-2.64,4.69-5.26,9.25a25.4,25.4,0,0,0-3.5,10.06l-.6,0q.48,2.43-3.86,10.16l.38,7.11a17.34,17.34,0,0,1-1.36,3.18,9.8,9.8,0,0,1,.19,5.91,92.64,92.64,0,0,0-8.9,9.91q-7.41,6.61-11.54,9.78l-2.36-.83-.94,1.88-2.4-.12L71.36,154l-1.07-2.81,2-2.31-2.53-4.81-.47-5.2c.67-.61,1.44-2.53,2.32-5.78a7.69,7.69,0,0,0-.18-1.27,11.11,11.11,0,0,1-.18-1.27A29.43,29.43,0,0,1,72,126l-1.32-.07,1.53-4.37,2.64.13,1.3-2c.11-.55.4-1.74.9-3.56a16.38,16.38,0,0,0,.76-3.45l.2-4-2-1.3.26-5.16,2,.58.84-2.49-.59-2.67.75-.45.13-2.76.72,0a18,18,0,0,1,1.42-4.39,30.45,30.45,0,0,1-.35-7.83l-.48,0-.62-2a9.38,9.38,0,0,1-2.57-4.09l-.48,0-2.52-2.65a35.33,35.33,0,0,0-7.22-2.39,46,46,0,0,0-6.91-1.42,26.39,26.39,0,0,0-19.06,6.17,11.53,11.53,0,0,1-4.27,6.17L35.69,86Q30.76,88.4,26,96.82q-5,9.14-8.87,11.72-1.15,3.79-5.86,9.22l-.62,2.73-2.13,1.83-.06,1.32a46.63,46.63,0,0,0-5.12,8.77L4,133.76c-1.06.36-2.4,1.49-4,3.42l.77,4L6.38,137l3.79-6.19.06-1.2,1.24-.67.78-1.28,1.17.66A53.13,53.13,0,0,0,16.5,122q8.68-15.45,9.12-17l5.32-3q3.79-11.35,9.85-14.56l0-.72,4-1.48L45,82.47a15.21,15.21,0,0,0,5.37-4.19l3.28-.57,1.89.82,2-1.35,1.22,2.1,3.18-1.17c1.28,1.67,1.83,4.5,1.63,8.5l-.44,9.13c-1,3.48-1.78,6-2.42,7.7q-1.55,12.07-2.08,18.18a13.24,13.24,0,0,0-3.17,8.15L54.29,129l.53,4L54,134.15,52.93,142a103.49,103.49,0,0,0,5.13,15.77l3.18,1.36-.07,1.44,1.44.07,2.46,1.44,9,.44,2.82-1.19,4.42.7,6.06-3.32,1.2.06q2.36-3.86,10.28-8.64l-.12,2.4-.72,0a126.41,126.41,0,0,0,1,18.34L94.9,177l0,.72-3.28.68-3,5.51-.48,0L88,185.84q-3.48,4.51-5.51,6.83Q81,196,80.3,197.73q-6.87,12.78-7.29,14c-1.31,3.71-2.25,5.91-2.85,6.6l-.25,5.16L67,229.21a82.9,82.9,0,0,1,0,15.51,37.59,37.59,0,0,1,3.5,9.79,13,13,0,0,1,4,6.81L79,263.47l.55-1.41L79.49,264l2,.81,6-2.83,2-2.67,3.34-1.76q5.19-10.33,5.75-12,1-2.83,4-17.49,3.15-15.36,2.91-17.9l.79-1.29-1.87-1.29.76-.69.79-6.33,2-2.67a12,12,0,0,0-.46-5.44A161.12,161.12,0,0,1,107,171.24Zm13.69-68.86,2.46-1.09,1.53.56q-5.82,10.91-7.35,12.75l-1.24.67A35.36,35.36,0,0,1,120.66,102.38Zm-23.09,99c-.43,7.2-.93,12.58-1.51,16.17l-.54,1.17c.16,3.46-.21,6.08-1.1,7.89l.63,2-1.54,2a35.29,35.29,0,0,1-3.24,14.64l-1.23.66-1.54,1.85-1.2,0-3.3,1a129.09,129.09,0,0,1-3.14-17.12l-.72,0,.88-3.21-1.92-.09a93.25,93.25,0,0,0,3.68-11.37l.84,0c-.2-.73.58-3.74,2.36-9l-.56-3.16.75-.69,4.6-12.88,1.94-.39,1.87-3.88,3.63-3,.58-2,2,14.9Z"/><path class="cls-1" d="M231.8,136.11q-.48,1.41-7.45,11.73l-1.35.38-.27,1.32-2,2.23-2.83,1.2-2.89,4.63-2.85,1.64-.06,1.1a23.48,23.48,0,0,1-11.87,1.31l-1-.49-1.66.37a55.87,55.87,0,0,1-11-3.54q-7.22-7.67-8.36-22.38l1.23.06.09-1.88L178,131.28l1.09-1.17-.94-1.82-1.23-.06q-.93-4.16-.35-16.11a95.92,95.92,0,0,0,.09-10.32,31,31,0,0,0-.67-3.14,8.14,8.14,0,0,1-.24-3.45l-.38-.69c-.8,2.48-1.61,5-2.41,7.43-1.23,4.09-1.78,6.39-1.67,6.91L169.56,111l-.76,3,.49,2.58-3.78,8.14L162,126.84a47.44,47.44,0,0,1-4.18,7.78l-.11,2.22-1.69,1-.13,2.54-4.52,2.22-.14,3-.64.42.44,3.68q-3.2,2.4-4.8,7.76l-2.88,2.3-.79,3.62-3.32,2.73-2.52,5.43-1.05.39-4.38-.66L127,168.53l-1.19-3.05,3.47-1.61.7-1.74q4.08-1.57,10.13-9.83,5.61-7.61,7.41-13l3.08-2.18-.58-.69a21.32,21.32,0,0,0,2.92-5.3l.62,0c.63-1.82,2.21-3.92,4.72-6.32a33.86,33.86,0,0,1,3.27-8.16q3.61-6.7,4.07-7.69a38.41,38.41,0,0,1,.82-4.06q1.16-2.84,5.63-12.38l.11-2.33q2.7-2.64,4.32-10.66l-.8-4.81.62,0,.61-4.08,1.28-1,1,.49,1.15-.38,4.32,2,2.14,2.44-1.72,1.69,3.26,2.6,1.26,7.83-1.84,4-1.39,1.26A33.51,33.51,0,0,1,189,102.84q.44,5.91.77,11.69.43,1.68,1.08,5.27a17.14,17.14,0,0,0,.17,5l-.41,0q.74,10.14-.72,14.73a104.88,104.88,0,0,0,7.1,12.44l-.05,1.11-.62,0,.9,2.59,3.35.83q6.49-.34,18.12-9.33,2.66-2.09,8.75-11ZM194.69,48.18a60.14,60.14,0,0,1-1.54,8.36L191,59.32l-9,.23-2.6-3.68a33.9,33.9,0,0,1,4.15-15.56l7.75,1.16,2,1.87.47,3,.74-.52a6.62,6.62,0,0,0,.15,1.23A7.77,7.77,0,0,1,194.69,48.18Z"/><text class="cls-2" transform="matrix(0.99, -0.15, 0.15, 0.99, 218.69, 156.58)">chun</text><path class="cls-1" d="M471.41,115c.48-.3-.23-.8-.26-1C470.54,114.77,471.57,115.15,471.41,115Z"/><polygon class="cls-1" points="465.38 122.49 465.3 122.11 464.75 123.66 465.38 122.49"/><path class="cls-1" d="M458.34,127.85c1.52.64,2.43-2.12,4-2.66l.4.11-.13-1.34C461.19,125.25,459.66,127.35,458.34,127.85Z"/><path class="cls-1" d="M452.77,128.14c.55.28-.54,1,1-.49h-.24A3.83,3.83,0,0,1,452.77,128.14Z"/><path class="cls-1" d="M453.51,127.65c.71-.58-.76,0,0,0Z"/><path class="cls-1" d="M450.18,130.32l.72-1.09c-.4-.13-1.33.41-1.13,0C448.89,130.14,449.29,130.27,450.18,130.32Z"/><path class="cls-1" d="M449.81,131.82l.41-.52C450.05,131.24,449.88,131.3,449.81,131.82Z"/><path class="cls-1" d="M451.07,130.18l-.85,1.12c.27.09.55.46.42-.48C450.79,131.23,450.77,130.75,451.07,130.18Z"/><path class="cls-1" d="M451.83,129.94c.74-.13,1.59-.47.85.62C454.51,129.09,453.64,128.47,451.83,129.94Z"/><path class="cls-1" d="M458.85,129.3l1-.22.36-.86C460,128.65,458.54,129,458.85,129.3Z"/><path class="cls-1" d="M443.51,133.94c.1.3.78.45,1.06.72l.56-.79C444.63,134,443.81,134.28,443.51,133.94Z"/><path class="cls-1" d="M444.57,134.66c-.27.4-.55.8-.84,1.18C444.79,135.26,444.81,134.89,444.57,134.66Z"/><polygon class="cls-1" points="450.52 133.25 451.75 131.11 450.18 133.51 450.52 133.25"/><polygon class="cls-1" points="439.13 136.58 439.41 135.59 438.81 137.19 439.13 136.58"/><path class="cls-1" d="M436.3,138.45c.18-.79-1.16-.44-.84-1.06a5.92,5.92,0,0,0-1.52,2.16A3.38,3.38,0,0,1,436.3,138.45Z"/><path class="cls-1" d="M433.24,140.73a6.13,6.13,0,0,0,.7-1.18A4.24,4.24,0,0,0,433.24,140.73Z"/><path class="cls-1" d="M441.69,136.9a1.59,1.59,0,0,0-1.37-.18l.91.45Z"/><path class="cls-1" d="M441.26,137.18h0l-1,.56Z"/><path class="cls-1" d="M441.8,136.84l-.11.06C441.77,137,441.81,137,441.8,136.84Z"/><path class="cls-1" d="M447.15,134.6c-.39.85-1.49,2.21.24,1.92C447.54,135.71,446.56,135.87,447.15,134.6Z"/><path class="cls-1" d="M442.93,137.4l1.34-.59c-.15-.17-.55-.31-.34-.72Z"/><polygon class="cls-1" points="442.48 138 442.93 137.4 442.44 137.62 442.48 138"/><path class="cls-1" d="M435.74,140.16a4.5,4.5,0,0,1-1.53,1.47,12.25,12.25,0,0,0,2.25-1.07C436.42,140.27,436.47,139.68,435.74,140.16Z"/><path class="cls-1" d="M438.46,138.78l-.1.11C438.47,138.91,438.54,138.89,438.46,138.78Z"/><path class="cls-1" d="M427.61,145.25l.18.08-.05-.15Z"/><path class="cls-1" d="M436.65,140.63a1.41,1.41,0,0,0,1-1,9.33,9.33,0,0,1-1.18.89C436.47,140.69,436.51,140.77,436.65,140.63Z"/><path class="cls-1" d="M431.6,142.08a8.16,8.16,0,0,0,1.17-.1C432.36,141.89,431.59,141.83,431.6,142.08Z"/><path class="cls-1" d="M438.06,138.8l.06-.08C437.86,138.66,437.92,138.73,438.06,138.8Z"/><path class="cls-1" d="M438.06,138.8a3.48,3.48,0,0,0-.42.87,4.72,4.72,0,0,0,.72-.78A1.27,1.27,0,0,1,438.06,138.8Z"/><path class="cls-1" d="M428.18,151.2c-.27-.76.82-2.19,2.47-2.13,1-1.2-1.12-3-2.86-3.74.12.32.28.6-.75,1.7.64.14,3.26-.63,2.54.58-1.47,1.27-1.49.5-2.5.57,1.16.49-1.44,2.43-.41,3.52l1.23-1.26C428,150.63,427.67,151.24,428.18,151.2Z"/><path class="cls-1" d="M430.2,144.1l.46-.37a5.34,5.34,0,0,1-2.29,0c-.66.81-.69,1.16-.63,1.42l2.57-1.28Z"/><path class="cls-1" d="M433,142.47c0,1-1,2,.19,2.36,1.49-.88.71-1.21,1.42-2-2.32,1.52.46-.8-1.54-.26a8.32,8.32,0,0,1,1.19-.92,11.16,11.16,0,0,1-1.44.35h.09v0c.16,0,.23.07.08.08s0,0,0,0a1.06,1.06,0,0,1,.05.35c-.79.23-.22-.14-.05-.35a.56.56,0,0,0,0-.12h0l-2.19,1.74A9.85,9.85,0,0,0,433,142.47Z"/><path class="cls-1" d="M447.16,138.91a.25.25,0,0,1-.18-.12C446.89,139,446.87,139.08,447.16,138.91Z"/><path class="cls-1" d="M445.91,139.1c.11-.21.08-.58.67-.88.62-.1.22.35.4.57.21-.42.82-1.3-.44-.95l-.1.21c-1.1.38-2.93.19-2.82,0A6,6,0,0,0,445.91,139.1Z"/><path class="cls-1" d="M439.45,141.07l-1.76,1.57,1.39,0-.28-.35C440,141.77,439.49,141.45,439.45,141.07Z"/><polygon class="cls-1" points="427.17 145 427.01 144.05 426.45 145.82 427.17 145"/><polygon class="cls-1" points="424.61 146.53 424.33 145.78 423.87 146.58 424.61 146.53"/><path class="cls-1" d="M260,187.24l-.71.16A3,3,0,0,0,260,187.24Z"/><path class="cls-1" d="M265,187.67l.16-.38C264.88,187.49,264.77,187.64,265,187.67Z"/><path class="cls-1" d="M355.79,171.83c-1.13-.52-2.45-1.43-2.14-.58l.48.79A2.66,2.66,0,0,1,355.79,171.83Z"/><path class="cls-1" d="M306.18,183.79l.3.26.64-.85Z"/><path class="cls-1" d="M305.63,187.4l-1.36-.52A5.15,5.15,0,0,0,305.63,187.4Z"/><path class="cls-1" d="M232.56,185.18l-.92.77C232.9,186.11,232.4,185.59,232.56,185.18Z"/><path class="cls-1" d="M396.83,159.47a6.8,6.8,0,0,0-2.17.28C395.79,159.84,396.84,160.24,396.83,159.47Z"/><path class="cls-1" d="M262.67,178.21c-.43.13-.62.29-.63.48C262.49,178.58,262.74,178.43,262.67,178.21Z"/><path class="cls-1" d="M392.37,160.64c.17,0,.33,0,.49,0a6.34,6.34,0,0,1,1.8-.92A2.23,2.23,0,0,0,392.37,160.64Z"/><path class="cls-1" d="M135.36,173.74a1.36,1.36,0,0,1-.21-.1C135.13,173.76,135.22,173.76,135.36,173.74Z"/><path class="cls-1" d="M105.58,171.76a11.08,11.08,0,0,1,1.12-.64A3.29,3.29,0,0,0,105.58,171.76Z"/><path class="cls-1" d="M413.67,151.54c.54-.33.05-.13,0,0Z"/><path class="cls-1" d="M417.93,153.27a.58.58,0,0,0-.05.5A.73.73,0,0,1,417.93,153.27Z"/><path class="cls-1" d="M388.18,167.85h-.05C388.37,168,388.32,167.94,388.18,167.85Z"/><path class="cls-1" d="M414.69,151.48a4.26,4.26,0,0,0-.83.12A3.24,3.24,0,0,0,414.69,151.48Z"/><path class="cls-1" d="M414.4,151.17l.54-.17C415,150.83,414.84,150.78,414.4,151.17Z"/><path class="cls-1" d="M412.9,152a4.26,4.26,0,0,1,1-.38c-.14,0-.21,0-.19-.06Z"/><path class="cls-1" d="M187.49,175.85a.9.9,0,0,1-.12-.1C186.67,176,187,176,187.49,175.85Z"/><path class="cls-1" d="M341,183.85l.07-.06H341Z"/><path class="cls-1" d="M338.82,184.86c.82-1.23,1.4-1.19,2.19-1.08l-1.18-2.35Z"/><path class="cls-1" d="M247.94,186.31l1.55,1c-2.11,1.06-3.5.46-2.08,1.72.27-1.34,1.86-1.23,3.46-1.13s3.2.16,3.45-1.17l1,.67c-.31-.06-.37.1-.67,0,2,1.49,1.74-1.81,4.4-1.17.93.3,1.55.74.88,1l2.16-.51c.61.1.42.56-.18.46l3.23,0,0,.07a14.3,14.3,0,0,1,2.09-1.21c.79.45-.42.26-.24.61l1.82-.52c.68.75-.84,1.34-2.06,1.14,1.48,2.83,1.51-.56,5,1.21l-1.71.25c1,1.6,2.35,1.12,4.22,2.18-.44-.53-3.7-2.63-1.72-3.2a2.61,2.61,0,0,0,2.32-.11c0,1,1,.78,2.28.8l-.15,1.27c1.41-.32,1.32-1,2.16-1.52,1.53.17,1.82,1.17,2.16,2,2.47.28-1.66-1.64,1.28-1.79,2,.55,3.5.09,6-.68,1.43.45-.26.78.25,1.15l1.29-1c.31,0,.21.34.15.49,1.08-.39.1-1.27,1.78-1.61.23-.71,1.09-.19,2.16.31s2.35.9,3.38.07c.52.35-.23.79-.06,1.28a16.88,16.88,0,0,0,4.74-2.31l2,.77c-1.51-.91.33-2.1,1.91-3.09a15.74,15.74,0,0,0-1.3-1c.85-.26,1.7-.49,2.55-.78.32.19.09.65-.31,1.21.17-.12.33-.23.46-.34.95.4.51,1.18-.12,1.94-.33-.22-.66-.5-1-.75a3.43,3.43,0,0,0-1,2.42,1.92,1.92,0,0,1,.85-.37c-.16.21-.26.4-.18.53s.36-.16.77-.5l.67,1.4.11-.58,3.49.64c2.37-1.61,4.33-3.88,8.12-4.75-.86,1.12-.05,1.72,0,3-1.17-1.23-3,.77-5,.66,1.06.06.88.66.62.89l3.51-1.46c0,1,.83.71,1.81,1-.9-1.91,2.54-1.63,3.93-2.42.17.66-.11,1.39-1.91,1.43,2.13,1.27,2.28-2.63,4.34-1.58-.43.06-.67,0-.81.35.95-.71,3.47-.53,3,.12l-.44.06a24,24,0,0,0,5.5-.81c1.84-.54,3.34-1.26,3.42-2.14a12.08,12.08,0,0,1-.18,2.46c1.41-2.16,2.8-4.32,4.15-6.47-.2,1.52,2.12,4.67-.12,5.86a4.22,4.22,0,0,0,3-.54c-.51-.13-1.53-1.89-.92-2.13,2,1.32,1.36.69,3.75,1.62-.75-.17-.4-2.58.7-2.73-.11.37.52,2.2.16,2.52l2.29-2.76c-.6.53.25,1.89,1,2.39-.37-.37,2.37-.44,3-.8l-1.27-.28c3.15-.32,2.38-3.65,5.4-4.26-.26.54-.26,3,1.34,2.9.45-1.3,1.83-6.16,4.21-7.67l.67.52,1.82-1.23a40.13,40.13,0,0,1-5.1,8.27c1.27.23.5.68,2.2.2.75.44-.71,1.14-1.21,1.3l4.1-.61c-.51-1.26,2.72-2.06,2.28-3.11l-4,2.43c-.49-1.26,1.56-4.32,4.41-4.78.85.34.09,2.44.26,2.86.25-.51,2.42-1.6,2.76-1.36l-1,1c1.7,0,2.05-2.46,4.27-1.77.66-.1,2.41,1.1,2.3.3-1.49-1.16-3-5.66-2.67-7a22.62,22.62,0,0,1,4.69.94c1.41.84-.73,3.2.47,3.93-.06-.36.38-1,.58-1.18.77.1.07,1.18,1.48.57-.17-1.38,3-.89.33-1.33,1.29-.85,1.59-.24,3.23-.86-.8-.66.53-3.35,1.8-4.19,0,.35.49.67.71.82,2.91-.86,4.68-.77,7.31-1.82.36.21,1.78.09,1.45.85a2.94,2.94,0,0,1,1.28-1.29c2,.49-1.76.88,0,1.73-.18-.78,1.73-1.84,2.71-2.75-.81-1-2.77.82-3.76,1.74-.61-1.58.78-4,3.21-5.79,2-1.23,1.36.64,1.64.27a4.72,4.72,0,0,0,2.18-1.23,6.45,6.45,0,0,0,1-1.42,3.07,3.07,0,0,1,2.9-1.84c1.75.41.92,1.94,1.52,2.52-1.59,1.14-2.95.55-4.12,1.11l1.66-.17a3.48,3.48,0,0,1-2.24,1.32c1.49.4,6.89-2.82,10.39-3.37.4-.58,1.17-1.39.54-1.56l-.9.6c-1.26-.36,1.31-2-.08-1.74,1-1.18,2.05-2.75,4.07-3.2l.88.93c-.2-.3-1.51-.07-1.85.52.51-.86,3.51.12,3.62-1.73l-1.64-.13c1-1.19,2-3.13,3.77-3.57-1.28-.72-.3.31-2.08-.4,1.78,1.09-4.09,1.93-1.69,2.81-1.89-.9-2.32.37-4.44-.15.22.34.87.43-.54.91a1.88,1.88,0,0,1-.14.46l-.11,0h.1c0,.08,0,.09,0,0a1.71,1.71,0,0,1,.95.22c-.27,1.16-2.4,2.21-2.95,2.93-.9.18.14-.57-.48-.77l-.8,1.14c-.48-.77-2.76-.42-1.08-1.73l-1.73.71a5,5,0,0,0-3.37,1.13c-.88.17-1.65,1.8-1.22.85-.83.55-1.64,1.15-2.48,1.67l-.11-.2c-2.73.94-5,3.54-8.69,3.23a7.31,7.31,0,0,1-3.3,1.48l-.56-.63c-1.09.66-3.8.47-4.05,1.41-1-.77-2.43-.4-3.93.22-.75.31-1.51.68-2.22,1a8.13,8.13,0,0,1-1.93.57l.22,1a18.77,18.77,0,0,0-4.47,2l.36.83a5.17,5.17,0,0,1-2.91.82,20.54,20.54,0,0,0-3.73.49c.08-.37.73-.44,1.24-.35-3.49-1.23-5.93,3-9,2.22a1.8,1.8,0,0,1-1.64.4.42.42,0,0,0,.16-.09l-.28.06a10.58,10.58,0,0,0-1-.23,3.14,3.14,0,0,0,.89.27,13.8,13.8,0,0,0-2,.81l-.54-.87-.17.06c-.84-.19-.52.57,0,1.2a3.89,3.89,0,0,0-.91.77c-.95-1.39-1.95.93-3.13-.52-.36.9-3.8,1.4-3.91,3.16-.06-.22-.31-.27.11-.37a3.58,3.58,0,0,0-2.52.58l-.59-1.14-1.64,1.93c-1.3-.55-1.85-.9-.85-2-2.56,1.87-2.17.9-4.33,2.7v-.8c-.84.16-2.05,1.43-2.66.86-1.06-.55-3.42-.32-6.17-.05a33.36,33.36,0,0,1-8.38.2c1.17,2.25-2.38-.87-2.42.94-.33-.53-1-.79-.28-1.32-2.47.72-3.82-.6-5.45,1.05-.32-.53.48-.85.21-1.16-.2.14-.77.54-1.05.23s.34-.49.72-.76c-2.54.28-2.71,2-2.81,3.61-1.34-.64-2-.57-2.89.52-.48-.51-1.26-1,.34-1.27-.91,0-5.52-.6-5.58.69-.29-.32-1.26-.06-1.5.09a34.4,34.4,0,0,0-4.19,0l.55.21c-.77,1.55-1.65.34-3.26.52l.05-.16c-3.67-1.14-1.6.52-5.21-.77l.18,1c-.39,2.07-3.2-1.31-5.32-.59l.74.58c-1.18.66-3.12-2.91-4.25-3.2-.24-.19.41-.28.77-.4-2.95-1.35-.45,1.24-2.71,1.42-.38-.7.62-1.69-.88-1.9-.71-.6-4.5,2-6.48.52.41.56.83,1.11-.24,1.43-1.62.06-4.18-2.3-5.75-.77a.57.57,0,0,1-.26-.43c-1.25.35-4,.35-4.85,1.18-.82-3.39-7.78.88-7.44-2.19l-3.78-.24.14-.3a4.72,4.72,0,0,0-4.25.79c-.53-.28-.09-.51,0-.67-3.44-1-3.79-.94-6.93.21l-.18-1c-.88.47-4.88-2.2-8.47-1.51a.64.64,0,0,1,.43-.39c-4,.62-8.89-4-10.81-.63l-2.69.52c3.28.75-.71,1.48.57,2.27-1.33,0-3.22-1.56-1.59-1.51l.23.21c.85-1.78-4-1.24-3.76-2.5-6.53-.84-12.74-2.78-18.87-3.7l.51,1.55-2.12-.38c-.52-.41-.6-1.23.91-1-.69-.93-2.65.34-2.73.65-2.91-1,1.39-1.53.48-1.69l-1.26-.06.26.21c-1.09.45-1.26,1.07-3.09.76-1.12-.44-.48-1-.93-1.09,0-.1-.13-.17-.69-.13l-2.69-.47.94,1.28c-1.27.41-2.53-.39-1.45,1.07-1.57-2.26-10-1.94-11-2.69a10.32,10.32,0,0,1-5.48.15c.49.29.66,1.62-1.09,1.27.92-2.61-3.13-1.5-4.42-3.53,1.19,1.36-5.14-.1-3.24,1.88-1.48-.33,0-1-1.11-1.73-3.63.81-7.89-1.11-12.41-.73-.06.35.68.89-.27,1.41l-2.4-1.7c-.89.21-.74,2-2.42.9.25.29.61.71,0,.86-4.42-.66-8.95.2-13.39,1.27a103,103,0,0,1-13.79,2.89c1.45,0,.7.49-.16.94.63-.13.36.79.68,1.17a35.74,35.74,0,0,0-4.06.66c0,.76-.86,1.32-1.71,1.87s-1.6,1.2-1.39,1.82l.86-.92c-.23,1.1.73,1.42,1.79,1.73s2.3.71,2.71,1.57a1.35,1.35,0,0,1,1-1,4.2,4.2,0,0,1,.83-.17l1,0c1.32-.05,2.59-.25,3.37-1.83.69.15-.23.76.23,1.05.31-1,1-1.52,2.53-1.64l-.09.24a24,24,0,0,1,2.66-.84,23.2,23.2,0,0,1,2.39-.33l1.21-.11,1.31,0c.93,0,1.91-.12,3.12-.13l-.5-.89a3.72,3.72,0,0,1,1.81.41c1-1.59-2.88.33-2.06-1.38.85.87,2.63.55,4.41.43a13,13,0,0,1,2.48,0,1.88,1.88,0,0,1,1.55.9c1.59-.08-.53-1.07,1.06-1.15l.46.57.37-.79a1.7,1.7,0,0,1,1.67,1.31,3.58,3.58,0,0,0-1,.21c1.38.67,3.81-.35,4.29-.1-.51-.13-1-.24-1.54-.35,4.38-.63,9.73.36,14.1-.52l-.29-.47c3.36-.58,2.59.7,6.24.64l-.14.1a4.71,4.71,0,0,1,2.75-.34c-1,.43,1.62,1.2.36,1.65,3.68-.5,1.84-.51,4.4-1.9l.46.79a3.49,3.49,0,0,1,2.84-.9c-1.57.46,1,1.26-.74,1.9,3.61,2.07,5.85-1,7.31,1.62,2-1.83-3.16-1.54-2.13-1.85-.74-.76,1.64-1.36,2.81-1s1.74,2.88,4.8,3.23c-.3-.05-.34.1-.64.06,1.07.66,2.33-.42,3.62.61.95-1.12,1.81.32,2.25-1.22h-2.85c1.64-.2,3.38-1.83,5.89-.58a4.59,4.59,0,0,1-1.66.75c.71.57,1.52-.1,2.25.48-.44,1.54-3.46-.12-5.32.84.73.78,3.38-.69,2.29.89,1.52-2,3,.68,5.27-.68l-.27.92a3.89,3.89,0,0,1,1.69-.35L192.14,179c1.82-.8,3.11,1.36,4.79,1-3.37-.45-.59-1.24-1.92-2.13,4.33-.67,2,2.79,6.76,3-.65.05-2.29-.9-1.24-1.19a6.53,6.53,0,0,1,2.45,1.41c3.11.25-.34-1,1.06-1.42.89,1.3,1.58-.25,3-.42l-.13.95c3.43,1.12,1.22-1.85,4.28-.66l-1.53,1.13,1.7-.11-.49,1c1.91-.55,2.44-.26,4.16.29-.32-.73.47-1.7,2-1.51,1,.72-.73.83,1.51,1-.59.53-1.24,1.2-2.08.18-.14.3-.58.54-.72.83,1,.82,2.86.55,3.67.65a2.17,2.17,0,0,1-.84-.34l3.39-.88c.46.42,0,.66-.42.88a14.76,14.76,0,0,1,2.15-.34c-.36.75-.41,1.56-1.81,1.74l3.18-.45c.15.37,1.45,1.14,1,1.38,1.64.68,4.37-1,6.55-.07a1.48,1.48,0,0,1,.89-.3c2.09.45,3.87,1.63,6.52.87l1.26,1.57c2-.08-1.73-2,1.62-2.13,2.38-.19.73,1.29,1.51,1.77,1.24-.58,3.41-1.8,5.43-.43A7.79,7.79,0,0,1,247.94,186.31Zm24.56,1.42c-.49.18-1.48.75-1.79.16C271.31,186.82,271.7,187.37,272.5,187.73Zm37.37-2.3c-.33.34-.89.22-1.52-.1A2.53,2.53,0,0,1,309.87,185.43Zm97.77-30.34,0,.06C406.52,155.22,406.91,155.21,407.64,155.09Zm2.14-.48c.14-.21.08-.33-.06-.41,0,.28-.48.49-1,.65C409,155,409.28,155.06,409.78,154.61ZM181.51,168.5l.39.31C180.9,169,181.21,168.75,181.51,168.5Z"/><path class="cls-1" d="M305.71,187a1,1,0,0,1-.23-.51C305.3,186.63,305.31,186.82,305.71,187Z"/><path class="cls-1" d="M232.72,185l-.07,0a.32.32,0,0,0-.09.17Z"/><path class="cls-1" d="M381.05,174.25a2,2,0,0,1-1-.23C380.1,174.25,380.36,174.38,381.05,174.25Z"/><path class="cls-1" d="M419.36,148.26l-1.12.83a1.93,1.93,0,0,1,1.25-.26C419.36,148.64,419,148.46,419.36,148.26Z"/><path class="cls-1" d="M432.78,147.93c.12-.2.37-.22.49-.42l-.27-.37C432.25,147.59,431.89,148.2,432.78,147.93Z"/><path class="cls-1" d="M421.94,150.56c.47.68,1.13.05,1.93-.52l-.16.08C423.45,149,422.7,149.77,421.94,150.56Z"/><path class="cls-1" d="M424.06,149.92a3.19,3.19,0,0,1,.8-.41C424.75,149.05,424.49,149.58,424.06,149.92Z"/><path class="cls-1" d="M412.06,153c.5,0-.17-1.05.2-.86C412.3,151,410,154.52,412.06,153Z"/><polygon class="cls-1" points="423.86 152.6 423.09 151.86 422.96 152.82 423.86 152.6"/><path class="cls-1" d="M416.59,155.35l1.53-.44c-.1-.14,0-.32.23-.49C417.47,154.81,416.43,155.1,416.59,155.35Z"/><path class="cls-1" d="M418.35,154.42a2.56,2.56,0,0,0,1-.7A4.89,4.89,0,0,0,418.35,154.42Z"/><polygon class="cls-1" points="422.07 153.81 421.56 153.83 420.54 154.25 422.07 153.81"/><path class="cls-1" d="M401.12,161.9l-1.48.88c0,.38.48.41,1,.05C401,162.46,401.49,162.11,401.12,161.9Z"/><path class="cls-1" d="M407,162.46c-.51,0-.62-.2-1-.4l.43,1.17Z"/><path class="cls-1" d="M402.43,164.64c0,.39-2,1.83,0,1C402.51,165.22,404,164.33,402.43,164.64Z"/><polygon class="cls-1" points="377.49 171.74 377.9 171.6 377.25 169.67 377.49 171.74"/><path class="cls-1" d="M356.53,182.28c2.12,0,.21-1.3,2.15-1.14.36-.58-1.58-.13-1.19-.65C356.38,181.23,355.68,181.08,356.53,182.28Z"/><path class="cls-1" d="M357.49,180.49A4.94,4.94,0,0,0,358,180,2.22,2.22,0,0,0,357.49,180.49Z"/><polygon class="cls-1" points="100.46 173.47 99.02 174.01 100.19 174 100.46 173.47"/><path class="cls-1" d="M99.11,176.35,98,175.54l0,1.43C98.3,176.74,98.74,176.27,99.11,176.35Z"/><path class="cls-1" d="M276,190.55l.12-.31c-.19-.35-.5-.39-1.12-.48Z"/><polygon class="cls-1" points="258.19 188.35 258.49 188.41 258.02 187.18 258.19 188.35"/><path class="cls-1" d="M243.1,188.32c.61.12,1.35-.07,2,.05C243.7,188.44,243.1,186.85,243.1,188.32Z"/></g></g></svg>